# xmcd CD database file
#
# Track frame offsets:
#	150
#	18515
#	53316
#	76509
#	101297
#	112709
#	134071
#	158223
#	193934
#	212002
#	233939
#	259592
#	282885
#	305875
#
# Disc length: 4449 seconds
#
# Revision: 0
# Processed by: cddbd v1.5.2PL0 Copyright (c) Steve Scherf et al.
# Submitted via: CDex 1.70beta2
#
DISCID=b4115f0e
DTITLE=Various Artist - Jazz Magazine Nr. 52
DYEAR=2007
DGENRE=Jazz
TTITLE0=Trovesi/Petrini/Maras - Grappoli Orfici
TTITLE1=Benedikt Jahnel and das Kakus6tett - EMU 
TTITLE2=Freddy Cole - I Concentrate on You
TTITLE3=Thomas Rückert - Blue in Green
TTITLE4=Lauren Newton - Nowhere
TTITLE5=Savina Yannatou and Primavera En Salonico - Yanno Yannovitse
TTITLE6=Nueva Tanco Ensamble - Decarisimo
TTITLE7=Simone Guiducci Gramelot Ensemble - La leggenda della vecia Sproc
TTITLE8=Michele di Toro Trio - Reynold's Law
TTITLE9=Carlo Colombo - L'intellettuale ad agosto
TTITLE10=DeJonette and Foday Musa Suso - Sunjatta Keita
TTITLE11=Veronica Vismara - New Moon
TTITLE12=Cecil Brooks III - I can't give You anithing but Love
TTITLE13=Rosario Giuliani - Conversation
EXTD=YEAR: 2007
EXTT0=
EXTT1=
EXTT2=
EXTT3=
EXTT4=
EXTT5=
EXTT6=
EXTT7=
EXTT8=
EXTT9=
EXTT10=
EXTT11=
EXTT12=
EXTT13=
PLAYORDER=
